<?xml version="1.0" encoding="UTF-8"?>
<svg id="Layer_1" data-name="Layer 1" xmlns="http://www.w3.org/2000/svg" viewBox="0 0 32 32">
  <defs>
    <style>
      .cls-1 {
        fill: #d3f852;
      }

      .cls-1, .cls-2 {
        stroke-width: 0px;
      }

      .cls-2 {
        fill: #fff;
      }
    </style>
  </defs>
  <g>
    <circle class="cls-1" cx="26.85" cy="26.95" r="4.75"/>
    <path class="cls-2" d="m26.85,32c-1.35,0-2.62-.52-3.58-1.48s-1.48-2.23-1.48-3.58.52-2.62,1.48-3.58,2.23-1.48,3.58-1.48,2.62.52,3.58,1.48,1.48,2.23,1.48,3.58-.52,2.62-1.48,3.58-2.23,1.48-3.58,1.48Zm0-9.52c-1.15,0-2.3.42-3.17,1.3s-1.3,1.98-1.3,3.17.48,2.33,1.3,3.17c.85.85,1.98,1.3,3.17,1.3s2.33-.48,3.17-1.3c1.75-1.75,1.75-4.57,0-6.32-.88-.88-2.02-1.32-3.17-1.32Z"/>
  </g>
  <g>
    <path class="cls-1" d="m15.02,11.32c-2.05,0-3.7,1.65-3.7,3.7v12.98c0,2.05,1.65,3.7,3.7,3.7h0c2.05,0,3.7-1.65,3.7-3.7v-9.25h9.27c2.05,0,3.7-1.65,3.7-3.7s-1.65-3.7-3.7-3.7h-12.98v-.03Z"/>
    <path class="cls-2" d="m15.02,32c-2.2,0-4-1.8-4-4v-12.98c0-2.2,1.8-4,4-4h12.98c2.2,0,4,1.8,4,4s-1.8,4-4,4h-8.98v8.98c0,2.2-1.8,4-4,4Zm0-20.38c-1.88,0-3.43,1.52-3.43,3.43v12.95c0,1.88,1.52,3.42,3.43,3.42s3.42-1.52,3.42-3.42v-9.55h9.55c1.88,0,3.42-1.52,3.42-3.43s-1.52-3.43-3.42-3.43h-12.98v.02Z"/>
  </g>
  <g>
    <path class="cls-1" d="m28,.28H4C1.95.28.28,1.95.28,4v24c0,2.05,1.65,3.7,3.7,3.7s3.7-1.65,3.7-3.7V7.7h20.32c2.05,0,3.7-1.65,3.7-3.7h0c0-2.05-1.65-3.72-3.7-3.72Z"/>
    <path class="cls-2" d="m4,32c-2.2,0-4-1.8-4-4V4C0,1.8,1.8,0,4,0h24c2.2,0,4,1.8,4,4s-1.8,4-4,4H7.97v20c0,2.2-1.78,4-3.97,4ZM4,.57C2.1.57.57,2.1.57,4v24c0,1.88,1.52,3.42,3.43,3.42s3.43-1.52,3.43-3.42V7.4h20.57c1.88,0,3.42-1.53,3.42-3.42,0-.92-.35-1.77-1-2.42s-1.5-1-2.42-1l-24,.02h0Z"/>
  </g>
</svg>