<?xml version="1.0" encoding="utf-8"?>
<!-- Generator: Adobe Illustrator 27.8.1, SVG Export Plug-In . SVG Version: 6.00 Build 0)  -->
<svg version="1.1" xmlns="http://www.w3.org/2000/svg" xmlns:xlink="http://www.w3.org/1999/xlink" x="0px" y="0px"
	 viewBox="0 0 32 32" style="enable-background:new 0 0 32 32;" xml:space="preserve">
<style type="text/css">
	.st0{display:none;}
	.st1{display:inline;fill:#0415A9;}
	.st2{fill:#0415A9;}
	.st3{fill:#D3F852;}
</style>
<g id="Layer_1" class="st0">
	<path class="st1" d="M26.9,32c-1.4,0-2.6-0.5-3.6-1.5s-1.5-2.2-1.5-3.6s0.5-2.6,1.5-3.6s2.2-1.5,3.6-1.5s2.6,0.5,3.6,1.5
		s1.5,2.2,1.5,3.6s-0.5,2.6-1.5,3.6S28.2,32,26.9,32z M26.9,22.5c-1.1,0-2.3,0.4-3.2,1.3s-1.3,2-1.3,3.2s0.5,2.3,1.3,3.2
		c0.9,0.9,2,1.3,3.2,1.3s2.3-0.5,3.2-1.3c1.8-1.8,1.8-4.6,0-6.3C29.1,22.9,28,22.5,26.9,22.5z"/>
	<path class="st1" d="M15,32c-2.2,0-4-1.8-4-4V15c0-2.2,1.8-4,4-4h13c2.2,0,4,1.8,4,4s-1.8,4-4,4h-9v9C19,30.2,17.2,32,15,32z
		 M15,11.6c-1.9,0-3.4,1.5-3.4,3.4v13c0,1.9,1.5,3.4,3.4,3.4s3.4-1.5,3.4-3.4v-9.5H28c1.9,0,3.4-1.5,3.4-3.4s-1.5-3.4-3.4-3.4
		L15,11.6L15,11.6L15,11.6z"/>
	<path class="st1" d="M4,32c-2.2,0-4-1.8-4-4V4c0-2.2,1.8-4,4-4h24c2.2,0,4,1.8,4,4s-1.8,4-4,4H8v20C8,30.2,6.2,32,4,32z M4,0.6
		C2.1,0.6,0.6,2.1,0.6,4v24c0,1.9,1.5,3.4,3.4,3.4s3.4-1.5,3.4-3.4V7.4H28c1.9,0,3.4-1.5,3.4-3.4c0-0.9-0.4-1.8-1-2.4s-1.5-1-2.4-1
		L4,0.6L4,0.6L4,0.6z"/>
</g>
<g id="Layer_2">
	<g>
		<path class="st2" d="M25.6,21.5c2.3,0,4.2,1.9,4.2,4.2s-1.9,4.2-4.2,4.2s-4.2-1.9-4.2-4.2S23.3,21.5,25.6,21.5 M25.6,20.2
			c-3,0-5.5,2.5-5.5,5.5s2.5,5.5,5.5,5.5s5.5-2.5,5.5-5.5S28.6,20.2,25.6,20.2L25.6,20.2z"/>
		<path class="st2" d="M25.6,32.1c-3.5,0-6.4-2.9-6.4-6.4s2.9-6.4,6.4-6.4c3.5,0,6.4,2.9,6.4,6.4S29.1,32.1,25.6,32.1z M25.6,22.4
			c-1.8,0-3.3,1.5-3.3,3.3s1.5,3.3,3.3,3.3c1.8,0,3.3-1.5,3.3-3.3S27.4,22.4,25.6,22.4z"/>
	</g>
	<g>
		<path class="st2" d="M15.1,11.9L26.6,12c1.8,0,3.3,1.4,3.3,3.3s-1.5,3.3-3.3,3.3h-8.2v8.1c0,1.8-1.5,3.3-3.3,3.3
			c-1.8,0-3.3-1.5-3.3-3.3V15.1C11.9,13.3,13.3,11.9,15.1,11.9 M15.1,10.6L15.1,10.6c-2.5,0-4.5,2-4.5,4.5v11.4c0,2.5,2,4.5,4.5,4.5
			s4.5-2,4.5-4.5v-6.9h6.9c2.5,0,4.5-2,4.5-4.5s-2-4.5-4.5-4.5L15.1,10.6L15.1,10.6L15.1,10.6z"/>
		<path class="st2" d="M15.1,32c-3,0-5.4-2.4-5.4-5.4V15.1c0-3.1,2.4-5.4,5.4-5.4h0l11.4,0.1c3,0,5.4,2.4,5.4,5.4s-2.4,5.4-5.4,5.4
			h-6v5.9C20.6,29.6,18.1,32,15.1,32z M15.1,12.8c-1.3,0-2.3,1-2.3,2.3v11.4c0,1.3,1,2.3,2.3,2.3s2.3-1,2.3-2.3v-9h9.1
			c1.3,0,2.3-1,2.3-2.3s-1-2.3-2.3-2.3L15.1,12.8z"/>
	</g>
	<g>
		<path class="st2" d="M26.6,2.2c1.8,0,3.3,1.4,3.3,3.3c0,1.8-1.5,3.3-3.3,3.3H8.7v17.9c0,1.8-1.4,3.3-3.3,3.3s-3.3-1.5-3.3-3.3V5.4
			c0-1.8,1.5-3.3,3.3-3.3H26.6 M26.6,0.9H5.4C3,0.9,0.9,3,0.9,5.4v21.1c0,2.5,2,4.5,4.5,4.5c2.5,0,4.5-2,4.5-4.5V9.9h16.6
			c2.4,0,4.5-2.1,4.5-4.5C31.1,2.9,29.1,0.9,26.6,0.9L26.6,0.9z"/>
		<path class="st2" d="M5.4,32c-3,0-5.4-2.4-5.4-5.4V5.4C0,2.5,2.5,0,5.4,0h21.1C29.6,0,32,2.4,32,5.4c0,2.9-2.5,5.4-5.4,5.4H10.9
			v15.7C10.9,29.6,8.5,32,5.4,32z M5.4,3.1c-1.2,0-2.3,1.1-2.3,2.3v21.1c0,1.3,1,2.3,2.3,2.3c1.3,0,2.3-1,2.3-2.3V7.8h18.8
			c1.2,0,2.3-1.1,2.3-2.3c0-1.3-1-2.3-2.3-2.3H5.4z"/>
	</g>
</g>
<g id="Layer_3">
	<g>
		<path class="st3" d="M25.6,30.5c-2.7,0-4.9-2.2-4.9-4.9s2.2-4.9,4.9-4.9c2.7,0,4.9,2.2,4.9,4.9S28.3,30.5,25.6,30.5z"/>
	</g>
	<g>
		<path class="st3" d="M15.1,30.5c-2.1,0-3.9-1.7-3.9-3.9V15.1c0-2.2,1.7-3.9,3.9-3.9l11.5,0.1c2.1,0,3.9,1.7,3.9,3.9
			s-1.7,3.9-3.9,3.9H19v7.5C19,28.7,17.3,30.5,15.1,30.5z"/>
	</g>
	<g>
		<path class="st3" d="M5.4,30.5c-2.1,0-3.9-1.7-3.9-3.9V5.4c0-2.1,1.8-3.9,3.9-3.9h21.1c2.2,0,3.9,1.7,3.9,3.9
			c0,2.1-1.8,3.9-3.9,3.9H9.3v17.2C9.3,28.7,7.6,30.5,5.4,30.5z"/>
	</g>
</g>
</svg>
